<svg version="1.2" xmlns="http://www.w3.org/2000/svg" viewBox="0 0 224 60" width="511" height="137">
	<defs>
		<clipPath clipPathUnits="userSpaceOnUse" id="cp1">
			<path d="m-1-1h226v62h-226z"/>
		</clipPath>
	</defs>
	<style>
		.s0 { fill: #527dff } 
		.s1 { fill: #ffffff } 
		.s2 { fill: #4062c9 } 
	</style>
	<g id="irccloud-scale-summit color" clip-path="url(#cp1)">
		<path id="bg" class="s0" d="m30 60c16.57 0 30-13.43 30-30 0-16.57-13.43-30-30-30-16.57 0-30 13.43-30 30 0 16.57 13.43 30 30 30z"/>
		<path id="Glyph" class="s1" d="m22.63 40.06c0.12 0.39 0.18 1.03 0.18 1.46 0 1.72-1.05 3.2-2.53 3.79 0.87 0.61 1.92 0.97 3.05 0.97 2.96 0 5.35-2.45 5.35-5.47 0-0.18-0.01-0.58-0.02-0.75h12.44c3.64-0.1 6.56-2.92 6.56-6.67 0-3.74-2.92-6.79-6.56-6.88h-1.1q0.06-0.61 0.07-1.24c0-5.95-4.72-10.77-10.53-10.77-5.73 0-10.39 4.69-10.52 10.53-3.18 0.93-5.52 3.92-5.52 7.48 0 4.29 3.4 7.55 7.59 7.55z"/>
		<path id="IRC" fill-rule="evenodd" class="s0" d="m67.4 43v-27.47h5.13v27.47zm16.59-10.74v10.74h-5.11v-27.47h8.38q2.81 0 4.81 0.57 2.01 0.58 3.29 1.63 1.28 1.04 1.88 2.5 0.6 1.45 0.6 3.2 0 1.39-0.41 2.62-0.41 1.24-1.18 2.24-0.77 1.01-1.9 1.77-1.13 0.76-2.57 1.22 0.97 0.55 1.67 1.57l6.88 10.15h-4.6q-0.67 0-1.13-0.27-0.47-0.26-0.79-0.76l-5.78-8.79q-0.32-0.5-0.71-0.71-0.39-0.21-1.15-0.21zm0-3.66h3.2q1.44 0 2.51-0.36 1.08-0.36 1.77-1 0.69-0.64 1.03-1.51 0.35-0.88 0.35-1.92 0-2.09-1.38-3.21-1.38-1.12-4.21-1.12h-3.27zm38.31 8.24l2.01 2.19q-1.67 2.07-4.11 3.17-2.44 1.1-5.86 1.1-3.06 0-5.5-1.04-2.45-1.05-4.18-2.91-1.72-1.86-2.65-4.44-0.92-2.59-0.92-5.65 0-3.09 1.03-5.67 1.02-2.57 2.89-4.44 1.86-1.86 4.45-2.89 2.6-1.04 5.73-1.04 3.06 0 5.35 0.98 2.29 0.98 3.92 2.59l-1.71 2.38q-0.15 0.23-0.39 0.4-0.23 0.17-0.65 0.17-0.44 0-0.89-0.34-0.46-0.35-1.16-0.74-0.71-0.4-1.78-0.75-1.07-0.34-2.73-0.34-1.94 0-3.56 0.68-1.62 0.67-2.79 1.93-1.17 1.25-1.83 3.04-0.65 1.8-0.65 4.04 0 2.32 0.65 4.13 0.66 1.8 1.78 3.04 1.12 1.23 2.64 1.89 1.52 0.65 3.27 0.65 1.04 0 1.89-0.11 0.85-0.12 1.56-0.36 0.71-0.25 1.35-0.64 0.63-0.39 1.26-0.96 0.19-0.17 0.4-0.27 0.21-0.11 0.45-0.11 0.42 0 0.73 0.32z"/>
		<path id="Cloud" fill-rule="evenodd" class="s2" d="m147.77 36.84l2.01 2.19q-1.67 2.07-4.11 3.17-2.44 1.1-5.86 1.1-3.06 0-5.5-1.04-2.44-1.05-4.17-2.91-1.73-1.86-2.65-4.44-0.92-2.59-0.92-5.65 0-3.09 1.02-5.67 1.03-2.57 2.89-4.44 1.86-1.86 4.46-2.89 2.59-1.04 5.72-1.04 3.06 0 5.35 0.98 2.29 0.98 3.93 2.59l-1.71 2.38q-0.16 0.23-0.39 0.4-0.24 0.17-0.66 0.17-0.44 0-0.89-0.34-0.46-0.35-1.16-0.74-0.7-0.4-1.78-0.75-1.07-0.34-2.72-0.34-1.94 0-3.57 0.68-1.62 0.67-2.79 1.93-1.17 1.25-1.82 3.04-0.66 1.8-0.66 4.04 0 2.32 0.66 4.13 0.65 1.8 1.77 3.04 1.12 1.23 2.64 1.89 1.52 0.65 3.27 0.65 1.05 0 1.89-0.11 0.85-0.12 1.56-0.36 0.71-0.25 1.35-0.64 0.64-0.39 1.26-0.96 0.19-0.17 0.4-0.27 0.21-0.11 0.46-0.11 0.42 0 0.72 0.32zm10.6 6.16h-4.69v-28.23h4.69zm17.59-19.1q1.77 0.7 3.03 2 1.25 1.29 1.94 3.15 0.68 1.86 0.68 4.16 0 2.32-0.68 4.18-0.69 1.86-1.94 3.17-1.26 1.31-3.03 2.02-1.78 0.7-3.96 0.7-2.19 0-3.98-0.7-1.78-0.71-3.04-2.02-1.27-1.31-1.96-3.17-0.7-1.86-0.7-4.18 0-2.3 0.7-4.16 0.69-1.86 1.96-3.15 1.26-1.3 3.04-2 1.79-0.7 3.98-0.7 2.18 0 3.96 0.7zm-0.36 14.14q1.16-1.64 1.16-4.79 0-3.16-1.16-4.81-1.17-1.65-3.6-1.65-2.47 0-3.65 1.66-1.18 1.66-1.18 4.8 0 3.13 1.18 4.78 1.18 1.64 3.65 1.64 2.43 0 3.6-1.63zm13.97-14.54v12.39q0 1.79 0.83 2.76 0.82 0.98 2.48 0.98 1.21 0 2.28-0.54 1.06-0.54 2.01-1.49v-14.1h4.69v19.5h-2.87q-0.91 0-1.19-0.86l-0.33-1.56q-0.6 0.61-1.25 1.11-0.65 0.51-1.38 0.86-0.73 0.35-1.57 0.55-0.85 0.2-1.82 0.2-1.59 0-2.82-0.54-1.23-0.54-2.06-1.53-0.84-0.99-1.26-2.35-0.43-1.36-0.43-2.99v-12.39zm31.03 19.5q-0.92 0-1.2-0.86l-0.38-1.88q-0.61 0.68-1.27 1.23-0.67 0.56-1.44 0.95-0.77 0.4-1.65 0.62-0.89 0.22-1.91 0.22-1.6 0-2.93-0.66-1.33-0.67-2.29-1.93-0.96-1.27-1.48-3.13-0.52-1.86-0.52-4.25 0-2.17 0.59-4.03 0.59-1.86 1.69-3.23 1.1-1.37 2.64-2.14 1.54-0.77 3.46-0.77 1.63 0 2.79 0.52 1.16 0.53 2.07 1.4v-10.3h4.69v28.24zm-3.76-4.05q1.03-0.61 1.94-1.73v-8.74q-0.8-0.97-1.74-1.37-0.94-0.4-2.02-0.4-1.07 0-1.93 0.4-0.86 0.4-1.46 1.21-0.6 0.81-0.93 2.05-0.32 1.24-0.32 2.94 0 1.71 0.28 2.89 0.27 1.19 0.79 1.94 0.51 0.75 1.25 1.08 0.74 0.34 1.65 0.34 1.47 0 2.49-0.61z"/>
	</g>
<script xmlns=""/></svg>